<svg height='100px' width='100px'  fill="#000000" xmlns="http://www.w3.org/2000/svg" xmlns:xlink="http://www.w3.org/1999/xlink" version="1.1" x="0px" y="0px" viewBox="0 0 100 100" enable-background="new 0 0 100 100" xml:space="preserve"><path d="M50,34.1L24.1,8.3c-4.3-4.5-11.5-4.5-15.8,0c-4.5,4.4-4.5,11.5-0.1,15.9l25.8,25.9L8.3,75.8c-4.4,4.4-4.4,11.6,0.1,15.9  c4.3,4.4,11.5,4.4,15.9,0l25.7-25.8l25.9,25.8c4.4,4.4,11.5,4.4,15.9,0c4.4-4.4,4.4-11.6-0.1-15.9L65.9,50.1l25.8-25.9  c4.5-4.5,4.4-11.5,0.1-15.9c-4.5-4.4-11.6-4.5-15.9,0L50,34.1z"></path></svg>