<svg height='100px' width='100px'  fill="#000000" xmlns="http://www.w3.org/2000/svg" xmlns:xlink="http://www.w3.org/1999/xlink" version="1.1" x="0px" y="0px" viewBox="0 0 100 100" enable-background="new 0 0 100 100" xml:space="preserve"><path d="M50.1,5c-13,0-23.7,10.7-23.7,23.7c0,3.9,3.3,7.2,7.3,7.2c4.1,0,7.3-3.3,7.3-7.2c0-5,4.1-9.1,9.1-9.1c4.9,0,8.9,4.1,8.9,9.1  c0,4.6-2,6.9-5.7,11.1c-4.6,4.7-10.7,11.2-10.7,23.6c0,4.2,3.3,7.4,7.4,7.4c4,0,7.2-3.2,7.2-7.4c0-6.7,2.8-9.7,6.6-13.7  c4.3-4.7,9.6-10.4,9.6-21.1C73.6,15.7,63.1,5,50.1,5L50.1,5z M50.1,77.4c-4.9,0-8.9,3.8-8.9,8.8c0,4.9,4,8.8,8.9,8.8  c4.7,0,8.8-3.9,8.8-8.8C58.9,81.3,54.9,77.4,50.1,77.4z"></path></svg>