<?xml version="1.0" encoding="UTF-8" standalone="no"?>
<svg
   xmlns:dc="http://purl.org/dc/elements/1.1/"
   xmlns:cc="http://creativecommons.org/ns#"
   xmlns:rdf="http://www.w3.org/1999/02/22-rdf-syntax-ns#"
   xmlns:svg="http://www.w3.org/2000/svg"
   xmlns="http://www.w3.org/2000/svg"
   xmlns:sodipodi="http://sodipodi.sourceforge.net/DTD/sodipodi-0.dtd"
   xmlns:inkscape="http://www.inkscape.org/namespaces/inkscape"
   version="1.1"
   viewBox="0 -256 1792 1792"
   id="svg64"
   sodipodi:docname="wrench.svg"
   inkscape:version="0.92.5 (2060ec1f9f, 2020-04-08)">
  <metadata
     id="metadata70">
    <rdf:RDF>
      <cc:Work
         rdf:about="">
        <dc:format>image/svg+xml</dc:format>
        <dc:type
           rdf:resource="http://purl.org/dc/dcmitype/StillImage" />
      </cc:Work>
    </rdf:RDF>
  </metadata>
  <defs
     id="defs68" />
  <sodipodi:namedview
     pagecolor="#ffffff"
     bordercolor="#666666"
     borderopacity="1"
     objecttolerance="10"
     gridtolerance="10"
     guidetolerance="10"
     inkscape:pageopacity="0"
     inkscape:pageshadow="2"
     inkscape:window-width="1864"
     inkscape:window-height="1016"
     id="namedview66"
     showgrid="false"
     inkscape:zoom="0.22377232"
     inkscape:cx="1168.9686"
     inkscape:cy="942.53078"
     inkscape:window-x="56"
     inkscape:window-y="27"
     inkscape:window-maximized="1"
     inkscape:current-layer="svg64" />
  <g
     transform="rotate(-180,868.07625,608.54235)"
     id="g62">
    <path
       d="m 384,64 q 0,26 -19,45 -19,19 -45,19 -26,0 -45,-19 -19,-19 -19,-45 0,-26 19,-45 19,-19 45,-19 26,0 45,19 19,19 19,45 z m 644,420 -682,-682 q -37,-37 -90,-37 -52,0 -91,37 L 59,-90 Q 21,-54 21,0 21,53 59,91 L 740,772 Q 779,674 854.5,598.5 930,523 1028,484 Z m 634,435 q 0,-39 -23,-106 Q 1592,679 1474.5,595.5 1357,512 1216,512 1031,512 899.5,643.5 768,775 768,960 q 0,185 131.5,316.5 131.5,131.5 316.5,131.5 58,0 121.5,-16.5 63.5,-16.5 107.5,-46.5 16,-11 16,-28 0,-17 -16,-28 L 1152,1120 V 896 l 193,-107 q 5,3 79,48.5 74,45.5 135.5,81 61.5,35.5 70.5,35.5 15,0 23.5,-10 8.5,-10 8.5,-25 z"
       id="path60"
       inkscape:connector-curvature="0" />
  </g>
</svg>
